PathFileType  4	(X/Y/Z) C:\Users\antoi\Documents\MyRepositories\mobilecap\ResultsAnalysis
DataRate	CameraRate	NumFrames	NumMarkers	Units	OrigDataRate	OrigDataStartFrame	OrigNumFrames
100.0	100.0	4	51	mm	100.0	69	275
Frame#	Time	r_knee			r_shank_antsup			r_ankle			r_calc			r_5meta			r_toe			L_knee			L_shank_antsup			L_ankle			L_calc			L_5meta			L_toe			r_sh2			r_sh3			r_sh4			L_sh2			L_sh3			r_thigh1			r_thigh2			r_thigh3			r_thigh4			r_thigh5			L_thigh1			L_thigh2			L_thigh3			L_thigh4			r.ASIS			r.PSIS			L.ASIS			L.PSIS			C7			R_Shoulder			L_Shoulder			R_Sternum			L_Sternum			R_humerus			R_elbow_med			R_elbow_lat			R_forearm			R_wrist_radius			R_wrist_ulna			L_humerus			L_elbow_med			L_elbow_lat			L_forearm			L_wrist_radius			L_wrist_ulna			R_HJC			L_HJC			R_HJC_reg			L_HJC_reg			
		X1	Y1	Z1	X2	Y2	Z2	X3	Y3	Z3	X4	Y4	Z4	X5	Y5	Z5	X6	Y6	Z6	X7	Y7	Z7	X8	Y8	Z8	X9	Y9	Z9	X10	Y10	Z10	X11	Y11	Z11	X12	Y12	Z12	X13	Y13	Z13	X14	Y14	Z14	X15	Y15	Z15	X16	Y16	Z16	X17	Y17	Z17	X18	Y18	Z18	X19	Y19	Z19	X20	Y20	Z20	X21	Y21	Z21	X22	Y22	Z22	X23	Y23	Z23	X24	Y24	Z24	X25	Y25	Z25	X26	Y26	Z26	X27	Y27	Z27	X28	Y28	Z28	X29	Y29	Z29	X30	Y30	Z30	X31	Y31	Z31	X32	Y32	Z32	X33	Y33	Z33	X34	Y34	Z34	X35	Y35	Z35	X36	Y36	Z36	X37	Y37	Z37	X38	Y38	Z38	X39	Y39	Z39	X40	Y40	Z40	X41	Y41	Z41	X42	Y42	Z42	X43	Y43	Z43	X44	Y44	Z44	X45	Y45	Z45	X46	Y46	Z46	X47	Y47	Z47	X48	Y48	Z48	X49	Y49	Z49	X50	Y50	Z50	X51	Y51	Z51	

69	0.68000000	-1105.03705	755.12436	-420.82424	-1094.72441	638.18367	-437.36895	-1245.51028	398.46794	-456.82641	-1297.66312	358.48157	-505.01944	-1134.90058	348.74203	-420.16465	-1099.65853	366.31085	-464.88197	-1099.57390	759.73655	-731.05086	-1082.69743	646.27573	-691.23571	-1243.05404	399.54682	-726.45396	-1294.75632	362.42770	-687.24428	-1127.74967	347.34468	-744.35308	-1090.55930	365.93424	-689.37061	-1139.09380	536.49300	-449.89814	-1148.52181	652.44396	-386.19327	-1206.61369	558.68853	-407.46808	-1126.14885	686.10901	-758.76597	-1173.99750	574.27588	-773.01771	-1058.88605	1065.45956	-411.58173	-1040.45942	957.26548	-412.23135	-1081.46018	924.34679	-370.94340	-1161.10215	1044.86533	-371.19906	-1136.98188	931.55036	-370.64939	-1071.19208	1053.73939	-745.84889	-1040.41898	919.61513	-743.64505	-1180.80771	1035.30848	-773.43199	-1146.82336	898.41968	-761.30846	-1037.70369	1199.36733	-451.09333	-1202.04162	1294.92221	-514.99968	-1042.01044	1199.85121	-696.46634	-1207.54693	1296.38600	-633.79683	-1058.49597	1724.14649	-571.81905	-1012.41056	1675.90374	-418.59367	-1009.19862	1684.15560	-729.23557	-953.77736	1643.92691	-553.05510	-953.19220	1642.08154	-594.83548	-1021.25427	1546.47369	-354.60932	-1136.80889	1378.16438	-402.44224	-1113.28674	1375.40848	-330.02698	-1091.18719	1250.13930	-314.09022	-1084.06257	1145.50931	-317.87707	-1114.41141	1147.86644	-295.31731	-1020.96312	1532.94220	-792.68393	-1131.36466	1365.15826	-745.74664	-1110.77020	1369.45312	-817.87237	-1076.53742	1275.44970	-835.96255	-1059.35203	1143.90262	-824.41828	-1084.23614	1142.13160	-842.68021	-1145.87265	1158.02218	-475.51178	-1145.85495	1153.52370	-664.83604	-1126.53790	1153.85145	-481.93883	-1134.03573	1155.84397	-643.72476	
70	0.69000000	-1101.30153	753.65132	-420.51108	-1091.78589	636.46013	-437.51179	-1245.37581	398.76757	-456.32148	-1297.72372	358.52971	-505.28234	-1135.00155	348.54837	-420.46994	-1099.62194	366.21338	-464.84401	-1096.01327	758.49766	-731.10004	-1079.78355	644.67229	-691.28759	-1242.80787	399.62004	-726.23261	-1294.78858	362.31506	-686.76640	-1127.72149	347.33951	-744.34492	-1090.48432	365.79493	-689.33493	-1137.20986	535.06098	-450.16696	-1145.41535	651.28544	-386.21770	-1203.88371	556.93299	-407.80811	-1122.93401	684.99242	-758.72965	-1172.14869	573.53632	-772.80522	-1056.42486	1063.81351	-411.45829	-1037.67929	956.00700	-411.61194	-1078.60440	922.75444	-370.56366	-1158.77337	1042.89211	-370.94790	-1134.02501	929.80487	-370.16410	-1069.30244	1052.42466	-746.05055	-1037.80187	918.44930	-743.69073	-1178.93082	1033.42456	-773.17459	-1144.11722	896.88017	-761.51096	-1035.56584	1197.02357	-450.80752	-1199.27688	1293.51323	-514.51947	-1040.01279	1197.51264	-696.18476	-1204.89102	1295.13687	-633.40010	-1052.94203	1721.61310	-571.67601	-1006.59441	1673.17739	-418.43349	-1003.49434	1681.41532	-729.10019	-948.33732	1640.99096	-553.03479	-947.71523	1639.24160	-594.47638	-1015.77981	1543.79550	-354.64763	-1131.67542	1375.55019	-402.29283	-1108.08732	1372.77120	-329.90158	-1085.97496	1247.59396	-313.97919	-1078.76394	1143.03860	-317.86516	-1109.01307	1145.28881	-295.32700	-1015.63217	1530.12492	-792.27377	-1126.60534	1362.49431	-745.71040	-1105.45644	1366.68373	-817.82151	-1071.02539	1272.55989	-835.18411	-1054.31031	1141.55615	-824.26666	-1078.36111	1139.20867	-841.36562	-1143.97350	1156.31971	-475.14908	-1144.12256	1151.85418	-664.47426	-1124.63663	1151.90681	-481.62002	-1132.27658	1154.11619	-643.40050	
71	0.70000000	-1097.44381	752.18007	-420.25306	-1088.76200	634.71279	-437.54227	-1245.03510	399.01540	-456.01770	-1297.71865	358.59686	-505.32083	-1135.15601	348.16056	-421.01761	-1099.54638	366.07797	-464.77720	-1092.26400	757.06128	-731.03571	-1076.76629	642.98330	-691.24222	-1242.49189	399.74245	-726.09235	-1294.76506	362.35226	-686.55985	-1127.65924	347.32402	-744.33262	-1090.38390	365.64391	-689.25495	-1135.12378	533.47695	-450.53090	-1142.22912	650.08631	-386.21526	-1201.64075	556.44647	-407.68063	-1119.52936	683.70765	-758.49079	-1169.93377	572.83524	-773.00299	-1054.02225	1062.21679	-411.18288	-1034.78147	954.57282	-411.21269	-1075.62694	921.14488	-370.12632	-1156.43363	1040.90228	-370.50783	-1131.02866	927.98617	-369.82863	-1067.50897	1050.81607	-746.21468	-1035.01926	917.22433	-743.75016	-1176.94262	1031.59222	-773.04562	-1141.12469	895.03906	-761.49040	-1033.29401	1194.57781	-450.53219	-1196.40202	1292.05711	-514.11415	-1037.11597	1195.22564	-695.97185	-1202.03174	1293.85975	-632.61153	-1047.31162	1718.99860	-571.61474	-1000.66948	1670.28317	-418.29444	-997.70996	1678.50249	-728.92942	-942.82038	1637.99733	-552.89138	-942.28134	1636.24560	-594.19250	-1010.17397	1540.98248	-354.75894	-1126.26037	1372.89874	-402.10133	-1102.75755	1370.06391	-329.68279	-1080.53235	1244.96113	-313.80012	-1073.02766	1140.39624	-317.91432	-1103.27904	1142.42334	-295.41571	-1010.15960	1527.15511	-791.83216	-1121.23174	1359.64077	-745.50761	-1099.96751	1363.82940	-818.07341	-1065.18007	1269.49432	-834.36486	-1048.16661	1138.75759	-822.70374	-1072.38116	1135.99920	-840.12232	-1141.78099	1154.43051	-474.88094	-1141.82867	1150.25262	-664.21265	-1122.34305	1149.94577	-481.38257	-1130.02941	1152.40912	-643.19073	
72	0.71000000	-1093.42703	750.56774	-420.13314	-1085.61635	632.99542	-437.36156	-1244.64626	399.27761	-455.67685	-1297.59627	358.71446	-505.20867	-1135.10467	348.03573	-420.94875	-1099.44248	365.90612	-464.70271	-1088.34136	755.40682	-730.89415	-1073.64307	641.13089	-691.01098	-1242.10589	399.79531	-725.78735	-1294.70951	362.44130	-686.43297	-1127.58442	347.30063	-744.32052	-1090.28510	365.49981	-689.16711	-1133.08202	532.10010	-450.77743	-1138.91744	648.85771	-386.11571	-1200.07125	557.27165	-407.10109	-1116.03126	682.27931	-758.22735	-1167.46263	572.17786	-773.36070	-1051.77647	1060.61338	-410.52284	-1031.73417	953.09758	-410.88398	-1072.41144	919.57842	-369.62237	-1154.04603	1038.82620	-370.12295	-1127.90909	926.00957	-369.62220	-1065.22454	1049.40031	-746.10484	-1032.02148	915.97969	-743.89488	-1174.83717	1029.65693	-773.12230	-1137.86993	892.97607	-761.12472	-1030.62143	1192.07055	-450.17853	-1193.42057	1290.56290	-513.80820	-1034.37819	1193.22283	-695.60593	-1199.01679	1292.57770	-631.59676	-1041.58777	1716.21387	-571.34587	-994.66674	1667.28125	-418.14288	-991.85586	1675.37686	-728.60875	-937.23029	1634.88481	-552.70377	-936.76486	1633.01372	-594.05279	-1004.51292	1538.02272	-354.98736	-1120.75375	1370.11920	-401.80934	-1097.28993	1367.21940	-329.38050	-1074.58240	1242.29795	-313.63000	-1066.92660	1137.56830	-318.00312	-1097.19915	1139.39634	-295.50865	-1004.48002	1524.07186	-791.23806	-1115.90700	1356.78205	-745.47339	-1094.33285	1360.79158	-818.09686	-1059.07403	1266.35856	-833.48997	-1040.92532	1135.88844	-820.41581	-1066.06027	1132.85144	-839.09290	-1139.33533	1152.51806	-474.55527	-1139.42642	1148.73801	-663.89514	-1119.89150	1147.99626	-481.09093	-1127.57763	1150.76544	-642.88799	
